<svg width="223px" height="276px" viewBox="0 0 223 276" version="1.1" xmlns="http://www.w3.org/2000/svg" xmlns:xlink="http://www.w3.org/1999/xlink">
    <!-- Generator: Sketch 51 (57462) - http://www.bohemiancoding.com/sketch -->
    <desc>Created with Sketch.</desc>
    <defs></defs>
    <g id="Symbols" stroke="none" stroke-width="1" fill="none" fill-rule="evenodd">
        <g id="Card-No-Net" transform="translate(-57.000000, -40.000000)">
            <g id="Group-114" transform="translate(58.000000, 41.000000)">
                <path d="M105.515917,193.221672 L102.27941,268.140672" id="Stroke-1" stroke="#4A4A4A" stroke-width="2" stroke-linecap="round" stroke-linejoin="round"></path>
                <path d="M94.5938679,191.284188 L97.9766921,268.140367" id="Stroke-2" stroke="#4A4A4A" stroke-width="2" stroke-linecap="round" stroke-linejoin="round"></path>
                <path d="M80.6496824,195.989811 L77.6166479,268.140214" id="Stroke-3" stroke="#4A4A4A" stroke-width="2" stroke-linecap="round" stroke-linejoin="round"></path>
                <path d="M70.5969259,198.848256 L73.3137017,268.140138" id="Stroke-4" stroke="#4A4A4A" stroke-width="2" stroke-linecap="round" stroke-linejoin="round"></path>
                <g id="Group-113" transform="translate(0.000000, 0.317783)">
                    <path d="M75.32564,267.271913 C75.32564,267.271913 79.8180366,268.219165 79.7296366,273.547551 L70.9216434,273.547551 C70.8332434,268.219165 75.32564,267.271913 75.32564,267.271913" id="Stroke-5" stroke="#4A4A4A" stroke-width="2" stroke-linecap="round" stroke-linejoin="round"></path>
                    <path d="M99.9886303,267.271913 C99.9886303,267.271913 104.481027,268.219165 104.392627,273.547551 L95.5846338,273.547551 C95.4962338,268.219165 99.9886303,267.271913 99.9886303,267.271913" id="Stroke-7" stroke="#4A4A4A" stroke-width="2" stroke-linecap="round" stroke-linejoin="round"></path>
                    <path d="M74.7778648,273.535891 L32.9928614,273.535891" id="Stroke-9" stroke="#4A4A4A" stroke-width="2" stroke-linecap="round" stroke-linejoin="round"></path>
                    <path d="M91.7957031,49.3525007 C91.7957031,49.3525007 87.4907755,46.703549 83.1858479,49.3525007" id="Stroke-11" stroke="#4A4A4A" stroke-linecap="round" stroke-linejoin="round"></path>
                    <path d="M80.8350176,33.8715269 C80.8350176,34.5551028 80.2802314,35.1091269 79.5974176,35.1091269 C78.9138417,35.1091269 78.3598176,34.5551028 78.3598176,33.8715269 C78.3598176,33.1887131 78.9138417,32.6339269 79.5974176,32.6339269 C80.2802314,32.6339269 80.8350176,33.1887131 80.8350176,33.8715269" id="Fill-13" fill="#080708"></path>
                    <path d="M96.6218859,33.8715269 C96.6218859,34.5551028 96.0678617,35.1091269 95.3842859,35.1091269 C94.70071,35.1091269 94.1474479,34.5551028 94.1474479,33.8715269 C94.1474479,33.1887131 94.70071,32.6339269 95.3842859,32.6339269 C96.0678617,32.6339269 96.6218859,33.1887131 96.6218859,33.8715269" id="Fill-15" fill="#080708"></path>
                    <path d="M87.4472614,36.3073279 L87.2201648,39.4813452 C87.2201648,39.4813452 84.9796821,40.0506107 85.6579234,41.7035383 C86.0892545,42.7529072 87.6293959,42.9037969 88.4470959,42.1996452" id="Stroke-17" stroke="#4A4A4A" stroke-linecap="round" stroke-linejoin="round"></path>
                    <path d="M80.5016124,41.7634369 C80.5016124,43.0520955 79.4568159,44.0968921 78.1681572,44.0968921 C76.8794986,44.0968921 75.8354641,43.0520955 75.8354641,41.7634369 C75.8354641,40.4755403 76.8794986,39.4299817 78.1681572,39.4299817 C79.4568159,39.4299817 80.5016124,40.4755403 80.5016124,41.7634369" id="Fill-19" fill="#EC7AA1" opacity="0.2"></path>
                    <path d="M99.7721266,41.7634369 C99.7721266,43.0520955 98.7280921,44.0968921 97.4386714,44.0968921 C96.1507748,44.0968921 95.1059783,43.0520955 95.1059783,41.7634369 C95.1059783,40.4755403 96.1507748,39.4299817 97.4386714,39.4299817 C98.7280921,39.4299817 99.7721266,40.4755403 99.7721266,41.7634369" id="Fill-21" fill="#EC7AA1" opacity="0.2"></path>
                    <path d="M106.899377,32.8322172 C106.001659,44.1519897 101.935259,59.5602621 87.9467214,59.5602621 C74.9244869,59.5602621 70.550211,45.4536034 69.2966076,34.3014862" id="Stroke-23" stroke="#4A4A4A" stroke-width="2" stroke-linecap="round" stroke-linejoin="round"></path>
                    <path d="M81.5352828,58.4307234 L79.8236759,69.7283959" id="Stroke-25" stroke="#4A4A4A" stroke-width="2" stroke-linecap="round" stroke-linejoin="round"></path>
                    <path d="M94.5715393,58.2547617 L96.2130359,69.6774134" id="Stroke-27" stroke="#4A4A4A" stroke-width="2" stroke-linecap="round" stroke-linejoin="round"></path>
                    <polygon id="Stroke-29" stroke="#4A4A4A" stroke-width="1.5" stroke-linecap="round" stroke-linejoin="round" points="11.2143021 113.090577 10.5314883 120.559615 0.571246897 119.648943 1.25406069 112.180667"></polygon>
                    <polygon id="Stroke-31" stroke="#4A4A4A" stroke-width="1.5" stroke-linecap="round" stroke-linejoin="round" points="9.03227 120.422138 8.44852517 126.803703 1.48778724 126.167376 2.07077 119.786572"></polygon>
                    <path d="M3.34357759,126.263778 L3.49599138,124.596371" id="Stroke-33" stroke="#4A4A4A" stroke-width="1.5" stroke-linecap="round" stroke-linejoin="round"></path>
                    <path d="M4.97486241,126.412991 L5.12727621,124.745584" id="Stroke-35" stroke="#4A4A4A" stroke-width="1.5" stroke-linecap="round" stroke-linejoin="round"></path>
                    <path d="M6.60690931,126.561899 L6.75856103,124.894492" id="Stroke-37" stroke="#4A4A4A" stroke-width="1.5" stroke-linecap="round" stroke-linejoin="round"></path>
                    <path d="M2.24657931,110.336612 L10.5135034,111.092585" id="Stroke-39" stroke="#4A4A4A" stroke-width="1.5" stroke-linecap="round" stroke-linejoin="round"></path>
                    <path d="M2.8896131,108.504751 L10.2130959,109.173848" id="Stroke-41" stroke="#4A4A4A" stroke-width="1.5" stroke-linecap="round" stroke-linejoin="round"></path>
                    <path d="M3.67698276,106.685921 L9.7682,107.242231" id="Stroke-43" stroke="#4A4A4A" stroke-width="1.5" stroke-linecap="round" stroke-linejoin="round"></path>
                    <path d="M23.1886155,93.8408676 L50.5819466,108.78504" id="Stroke-45" stroke="#4A4A4A" stroke-width="2" stroke-linecap="round" stroke-linejoin="round"></path>
                    <path d="M23.1886155,93.8408676 C23.1886155,93.8408676 21.8938603,91.8244331 19.7996948,90.2370434 C19.7996948,90.2370434 18.0034983,88.6748021 16.4686914,87.3625193 C15.4551397,86.4945228 14.453019,85.55794 13.7633466,86.5006193 C13.2878155,87.1514262 14.5924776,88.4271297 15.3172052,89.767609 C16.1417638,91.1576228 16.4412569,91.5371331 16.4412569,91.5371331" id="Stroke-47" stroke="#4A4A4A" stroke-width="2" stroke-linecap="round" stroke-linejoin="round"></path>
                    <path d="M14.1844659,90.6073328 C15.2384072,91.1682155 16.10869,91.4326534 16.4409521,91.5370569" id="Stroke-49" stroke="#4A4A4A" stroke-width="2" stroke-linecap="round" stroke-linejoin="round"></path>
                    <path d="M9.13873103,91.2589017 C7.45532069,89.6242638 6.4974,88.1976707 6.32364828,86.8518569 C6.21543448,86.0212017 6.79384483,85.3711569 7.2709,85.2423672 C7.74871724,85.1135776 8.81866207,85.18445 10.1439,87.0911466 C10.5775172,87.714519 11.0545724,88.2517776 11.5461069,88.7143534" id="Stroke-51" stroke="#4A4A4A" stroke-width="2" stroke-linecap="round" stroke-linejoin="round"></path>
                    <path d="M22.0656307,96.4831893 C22.0656307,96.4831893 19.6369169,96.5830203 17.4413962,96.1303514 C15.8090445,95.7935169 13.7217376,94.8249272 11.7571238,93.44101" id="Stroke-53" stroke="#4A4A4A" stroke-width="2" stroke-linecap="round" stroke-linejoin="round"></path>
                    <path d="M15.3491359,89.9944769 C13.5354117,90.3518872 12.6003531,91.5437631 11.5105945,93.3529148 C9.30592897,97.0131321 8.43259793,102.48936 8.27027724,105.085729" id="Stroke-55" stroke="#4A4A4A" stroke-width="1.5" stroke-linecap="round" stroke-linejoin="round"></path>
                    <path d="M37.4662824,91.9796666 C30.4278134,89.1843976 25.4073031,88.3118286 18.6957617,89.2895631" id="Stroke-57" stroke="#4A4A4A" stroke-width="1.5" stroke-linecap="round" stroke-linejoin="round"></path>
                    <path d="M16.0248624,86.9141941 C24.1447072,85.4228252 30.3159417,86.1071631 38.506659,89.3596734" id="Stroke-59" stroke="#4A4A4A" stroke-width="1.5" stroke-linecap="round" stroke-linejoin="round"></path>
                    <path d="M5.45709966,104.910224 C5.48605828,104.449172 6.01798241,96.7126483 9.33222034,91.5313414 C9.68582034,90.9773172 10.0721893,90.4530138 10.4920893,89.9698621 C11.4126686,88.9113483 12.499379,88.0502103 13.781179,87.5121897" id="Stroke-61" stroke="#4A4A4A" stroke-width="1.5" stroke-linecap="round" stroke-linejoin="round"></path>
                    <path d="M54.8219459,96.3596579 C53.7558114,99.5862579 52.90077,102.342661 52.3238838,103.999399 C50.8424217,108.250982 50.7380183,108.873592 50.7380183,108.873592 L54.1429424,110.989096" id="Stroke-63" stroke="#4A4A4A" stroke-width="2" stroke-linecap="round" stroke-linejoin="round"></path>
                    <path d="M152.782787,93.8408676 C152.782787,93.8408676 154.077542,91.8244331 156.170946,90.2370434 C156.170946,90.2370434 157.967142,88.6748021 159.501949,87.3625193 C160.516263,86.4945228 161.517621,85.55794 162.207294,86.5006193 C162.683587,87.1514262 159.530146,91.5371331 159.530146,91.5371331" id="Stroke-65" stroke="#4A4A4A" stroke-width="2" stroke-linecap="round" stroke-linejoin="round"></path>
                    <path d="M162.579488,90.5965114 C161.264919,91.6275907 159.915295,91.5369045 159.529688,91.5369045" id="Stroke-67" stroke="#4A4A4A" stroke-width="2" stroke-linecap="round" stroke-linejoin="round"></path>
                    <path d="M167.557551,90.5187803 C168.791341,89.1866838 169.500065,87.9902355 169.647144,86.8517045 C169.755358,86.0218114 169.17771,85.3717666 168.699893,85.2422148 C168.222076,85.1134252 167.152131,85.1842976 165.826893,87.0909941 C165.572362,87.4583114 165.301065,87.7951459 165.022148,88.1053079" id="Stroke-69" stroke="#4A4A4A" stroke-width="2" stroke-linecap="round" stroke-linejoin="round"></path>
                    <path d="M153.905772,96.4831893 C153.905772,96.4831893 156.334486,96.5830203 158.530006,96.1303514 C160.162358,95.7935169 163.035358,94.402741 165.001496,93.0188238" id="Stroke-71" stroke="#4A4A4A" stroke-width="2" stroke-linecap="round" stroke-linejoin="round"></path>
                    <path d="M65.3904707,41.5189652 C65.2411052,41.0121893 65.9894569,35.108441 70.7836328,33.1651652 C75.5770466,31.2218893 77.9745155,27.3391479 79.7722362,25.6511652 C81.5691948,23.9631824 85.6142569,22.5807893 89.8094466,23.3565755 C94.0038741,24.1323617 93.8545086,21.6624962 94.7529879,19.6056721 C95.6522293,17.5480859 100.887643,16.7441031 102.542857,19.924979 C105.219243,25.0666583 106.078095,30.8614307 107.276829,33.6445066 C108.474802,36.4275824 109.481495,45.5228755 109.481495,45.5228755" id="Stroke-73" stroke="#4A4A4A" stroke-width="2" stroke-linecap="round" stroke-linejoin="round"></path>
                    <path d="M220.374722,273.700346 C219.870995,273.74226 219.104353,273.773504 218.108329,273.773504 C214.166909,273.773504 206.636905,273.287304 197.609436,271.081115 C176.286747,265.869325 170.527791,244.24638 167.892557,225.990256 C165.958426,212.588511 166.585609,176.958739 167.138871,145.52187 C167.524478,123.617722 167.85674,104.700122 167.183833,99.1194907 C166.664102,94.8107528 165.280184,91.9049838 163.071709,90.4837252 C162.375178,90.0356286 161.651212,89.7780493 160.970684,89.6401148" id="Stroke-75" stroke="#4A4A4A" stroke-width="1.5" stroke-linecap="round" stroke-linejoin="round"></path>
                    <path d="M162.295999,87.0637883 C163.050447,87.2855503 163.830806,87.6200986 164.597447,88.1131572 C167.545892,90.010709 169.35733,93.6000538 169.982226,98.7813607 C170.678757,104.554795 170.344971,123.563081 169.957078,145.571633 C169.432774,175.35024 168.780443,212.411178 170.682568,225.586588 C174.459381,251.751464 182.711826,264.538219 198.278609,268.34323 C209.16705,271.004374 217.929319,271.078295 220.140843,270.891588" id="Stroke-77" stroke="#4A4A4A" stroke-width="1.5" stroke-linecap="round" stroke-linejoin="round"></path>
                    <path d="M138.600379,91.6272859 C145.638086,88.8320169 150.658596,87.9594479 157.370137,88.9379445" id="Stroke-79" stroke="#4A4A4A" stroke-width="1.5" stroke-linecap="round" stroke-linejoin="round"></path>
                    <path d="M160.041037,86.5618134 C151.921192,85.0704445 145.750719,85.7547824 137.560002,89.0072928" id="Stroke-81" stroke="#4A4A4A" stroke-width="1.5" stroke-linecap="round" stroke-linejoin="round"></path>
                    <path d="M57.9476479,85.0663293 C57.9476479,85.0663293 57.9560307,85.5151879 57.0712686,83.2045948 C55.9952272,80.3978948 56.5606824,75.759181 57.0712686,74.0407155 C57.5818548,72.32225 59.09761,69.6793948 59.1242824,67.7620293 C59.1570514,65.4666776 57.1345203,64.7023224 56.3473031,62.8352534 C54.6387445,58.7818086 58.81031,55.2793397 58.1854134,51.0856741 C57.5894755,47.0886224 53.5009755,44.2483914 53.2548272,40.2863948 C52.9934376,36.0873948 57.6268169,31.3297983 56.7184307,26.8968431 C56.7184307,26.8968431 56.4227479,24.5138534 56.8228341,22.9531362 C61.1498617,6.06645 92.259041,-11.2241328 111.457844,10.9246397 C115.760486,15.8887569 118.927644,21.8824293 118.48031,28.243419 C118.311131,30.6370776 116.479117,33.2883155 116.851007,35.5158431 C117.321965,38.3347362 120.611055,40.3359293 119.776589,43.4215466 C119.276672,45.2688017 117.68852,46.8104672 116.735172,48.4832086 C115.569207,50.5270776 115.453372,52.3636638 115.927379,54.5370845 C116.312986,56.3058466 117.076579,59.4669086 117.267096,60.2929914 C117.457613,61.1190741 118.816382,66.2698983 118.08251,71.4672086 C117.536107,75.3331845 116.009682,80.3727466 116.438727,82.3266914" id="Stroke-83" stroke="#4A4A4A" stroke-width="2" stroke-linecap="round" stroke-linejoin="round"></path>
                    <path d="M37.2199055,90.4860114 C36.993571,91.2503666 37.2717262,92.007101 37.8409917,92.1755183 C38.4102572,92.3439355 39.0557297,91.8607838 39.2820641,91.0956666 C39.5083986,90.3313114 39.2302434,89.5745769 38.6609779,89.4061597 C38.0917124,89.2377424 37.44624,89.7208941 37.2199055,90.4860114 Z" id="Stroke-85" stroke="#4A4A4A" stroke-width="1.5" stroke-linecap="round" stroke-linejoin="round"></path>
                    <path d="M38.7596659,91.0359966 L40.9094624,91.7934931" id="Stroke-87" stroke="#4A4A4A" stroke-width="1.5" stroke-linecap="round" stroke-linejoin="round"></path>
                    <path d="M139.337147,89.9375503 C139.57034,90.6996193 139.284564,91.4533055 138.698533,91.6201986 C138.113264,91.7886159 137.449502,91.3062262 137.217071,90.5449193 C136.983878,89.7828503 137.269654,89.0291641 137.855685,88.861509 C138.440954,88.6938538 139.104716,89.1754814 139.337147,89.9375503 Z" id="Stroke-89" stroke="#4A4A4A" stroke-width="1.5" stroke-linecap="round" stroke-linejoin="round"></path>
                    <path d="M137.84875,90.2984662 L135.581595,91.2099007" id="Stroke-91" stroke="#4A4A4A" stroke-width="1.5" stroke-linecap="round" stroke-linejoin="round"></path>
                    <g id="Group-97" opacity="0.2" transform="translate(133.362069, 47.248276)">
                        <polygon id="Fill-93" fill="#EC7AA1" points="14.3787172 0.0282727586 0.672144828 18.3125934 7.21755517 18.0832107 1.89983793 33.6583762 15.7329138 15.0311245 9.11891724 15.2627934"></polygon>
                        <polygon id="Stroke-95" stroke="#EC7AA1" stroke-linecap="round" stroke-linejoin="round" points="14.3787172 0.0282727586 0.672144828 18.3125934 7.21755517 18.0832107 1.89983793 33.6583762 15.7329138 15.0311245 9.11891724 15.2627934"></polygon>
                    </g>
                    <g id="Group-102" opacity="0.2" transform="translate(25.148276, 45.724138)">
                        <polygon id="Fill-98" fill="#EC7AA1" points="0.0735396552 5.49040207 6.82470862 22.1019814 10.7950879 18.5865572 11.7552948 22.6339055 16.0686052 18.8136538 21.3634603 33.4842434 20.0313638 11.2409745 15.7675879 15.0170262 15.0619121 7.90006414 10.0132052 12.3703607 5.95595 0.28166069"></polygon>
                        <polygon id="Stroke-100" stroke="#EC7AA1" stroke-linecap="round" stroke-linejoin="round" points="0.0735396552 5.49040207 6.82470862 22.1019814 10.7950879 18.5865572 11.7552948 22.6339055 16.0686052 18.8136538 21.3634603 33.4842434 20.0313638 11.2409745 15.7675879 15.0170262 15.0619121 7.90006414 10.0132052 12.3703607 5.95595 0.28166069"></polygon>
                    </g>
                    <path d="M152.738892,93.9216469 L125.358516,109.226278" id="Stroke-103" stroke="#4A4A4A" stroke-width="2" stroke-linecap="round" stroke-linejoin="round"></path>
                    <path d="M153.873003,96.4981259 C153.873003,96.4981259 138.175144,111.629005 128.069348,117.975516 C120.611741,122.658429 118.293527,115.370002 117.792848,114.070674 C117.352372,112.925284 111.175041,94.2774569 111.175041,94.2774569 C105.855799,116.433088 107.149792,123.939467 107.319734,127.180547 C107.393654,128.588088 108.369865,135.871943 108.369865,135.871943 C108.804244,138.410395 109.214999,140.289657 109.560217,143.010243 C109.935154,145.976978 107.751827,148.382829 104.969513,148.321864 L71.1267924,148.321864 C68.3444786,148.382829 66.1649614,145.768171 66.536851,143.010243 C66.536851,143.010243 67.1495545,139.416326 67.7272028,135.520629 C67.7272028,135.520629 68.7034131,128.236012 68.7773338,126.827709 C68.9472752,123.587391 70.2405062,116.081012 64.9220269,93.925381 C64.9220269,93.925381 58.7446959,112.573209 58.30422,113.717836 C57.8043028,115.017926 55.4853269,122.306353 48.0269579,117.62344 C37.9211614,111.276929 22.1310924,96.4828845 22.1310924,96.4828845" id="Stroke-105" stroke="#4A4A4A" stroke-width="2" stroke-linecap="round" stroke-linejoin="round"></path>
                    <path d="M121.274512,96.7120386 C122.341409,99.9386386 123.195688,102.695042 123.773336,104.35178 C125.254798,108.603363 125.35844,109.225973 125.35844,109.225973 L121.953516,111.341477" id="Stroke-107" stroke="#4A4A4A" stroke-width="2" stroke-linecap="round" stroke-linejoin="round"></path>
                    <path d="M62.572111,100.586016 L53.1948524,95.4412886 L58.1719248,85.4437059 C58.1719248,85.4437059 61.6713455,78.4989714 64.0093731,75.2258852 C67.300749,70.6176541 72.847849,68.6057921 76.5636972,67.7446541 C77.3501524,67.5625197 78.1655662,67.864299 78.6395731,68.51663 L81.5163834,72.483199 C84.59438,76.6296162 90.860111,76.8178472 94.1095731,72.8032679 L97.4916352,68.5364438 C97.9801214,67.9206921 98.7795317,67.6524438 99.5423628,67.8383886 C103.249828,68.7399162 108.785497,70.9552507 112.088304,75.5787231 C114.42557,78.8510472 117.92499,85.7957817 117.92499,85.7957817 L122.901301,95.7933645 L113.414304,100.975433" id="Stroke-109" stroke="#4A4A4A" stroke-width="2" stroke-linecap="round" stroke-linejoin="round"></path>
                    <path d="M108.334962,147.277296 C108.334962,147.277296 109.920066,155.205099 112.738197,164.18913 C115.557852,173.173161 119.093852,182.096227 118.904097,188.147817 C118.728821,193.784841 115.028976,197.131848 109.391952,194.489754 C93.1088241,186.856872 88.6042345,192.903889 75.0470276,197.399334 C64.4184517,200.923903 48.4386276,190.613872 52.9104483,178.794944 C57.3906517,166.956203 67.0110103,158.248041 68.1106759,147.394654" id="Stroke-111" stroke="#4A4A4A" stroke-width="2" stroke-linecap="round" stroke-linejoin="round"></path>
                </g>
            </g>
        </g>
    </g>
</svg>