<svg width="166px" height="276px" viewBox="0 0 166 276" version="1.1" xmlns="http://www.w3.org/2000/svg" xmlns:xlink="http://www.w3.org/1999/xlink">
    <!-- Generator: Sketch 51 (57462) - http://www.bohemiancoding.com/sketch -->
    <desc>Created with Sketch.</desc>
    <defs></defs>
    <g id="Page-1" stroke="none" stroke-width="1" fill="none" fill-rule="evenodd">
        <g id="Narhungsmittel-Show-Community-Too-Less" transform="translate(-95.000000, -240.000000)">
            <g id="Group-56" transform="translate(96.000000, 240.317783)">
                <path d="M99.2866679,193.404742 L96.0470958,268.393933" id="Stroke-1" stroke="#4A4A4A" stroke-width="2" stroke-linecap="round" stroke-linejoin="round"></path>
                <path d="M88.3542753,191.464966 L91.7403033,268.393933" id="Stroke-2" stroke="#4A4A4A" stroke-width="2" stroke-linecap="round" stroke-linejoin="round"></path>
                <path d="M74.3968837,196.175046 L71.3609767,268.39378" id="Stroke-3" stroke="#4A4A4A" stroke-width="2" stroke-linecap="round" stroke-linejoin="round"></path>
                <path d="M64.3346065,199.036655 L67.0539553,268.394162" id="Stroke-4" stroke="#4A4A4A" stroke-width="2" stroke-linecap="round" stroke-linejoin="round"></path>
                <g id="Group-55" transform="translate(0.000000, 0.282995)">
                    <path d="M69.0677228,267.559745 C69.0677228,267.559745 73.564374,268.507894 73.4758902,273.841327 L64.6595553,273.841327 C64.5710716,268.507894 69.0677228,267.559745 69.0677228,267.559745" id="Stroke-5" stroke="#4A4A4A" stroke-width="2" stroke-linecap="round" stroke-linejoin="round"></path>
                    <path d="M93.754147,267.559745 C93.754147,267.559745 98.2507981,268.507894 98.1623144,273.841327 L89.3459795,273.841327 C89.2574958,268.507894 93.754147,267.559745 93.754147,267.559745" id="Stroke-7" stroke="#4A4A4A" stroke-width="2" stroke-linecap="round" stroke-linejoin="round"></path>
                    <path d="M68.5195051,273.830419 L26.6949284,273.830419" id="Stroke-9" stroke="#4A4A4A" stroke-width="2" stroke-linecap="round" stroke-linejoin="round"></path>
                    <path d="M85.5533842,49.4340242 C85.5533842,49.4340242 81.2443795,46.7825637 76.9353749,49.4340242" id="Stroke-11" stroke="#4A4A4A" stroke-width="1.5" stroke-linecap="round" stroke-linejoin="round"></path>
                    <path d="M74.5823181,33.938694 C74.5823181,34.6229172 74.0270065,35.177466 73.343546,35.177466 C72.6593228,35.177466 72.104774,34.6229172 72.104774,33.938694 C72.104774,33.2544707 72.6593228,32.6999219 73.343546,32.6999219 C74.0270065,32.6999219 74.5823181,33.2544707 74.5823181,33.938694" id="Fill-13" fill="#080708"></path>
                    <path d="M90.384214,33.938694 C90.384214,34.6229172 89.8296651,35.177466 89.1454419,35.177466 C88.4612186,35.177466 87.9074326,34.6229172 87.9074326,33.938694 C87.9074326,33.2544707 88.4612186,32.6999219 89.1454419,32.6999219 C89.8296651,32.6999219 90.384214,33.2544707 90.384214,33.938694" id="Fill-15" fill="#080708"></path>
                    <path d="M81.2009005,36.3768019 L80.9735888,39.5538251 C80.9735888,39.5538251 78.7309842,40.122867 79.4098679,41.7781228 C79.8416074,42.8284856 81.3832074,42.9795181 82.2016819,42.2746995" id="Stroke-17" stroke="#4A4A4A" stroke-width="1.5" stroke-linecap="round" stroke-linejoin="round"></path>
                    <path d="M74.2485972,41.8381544 C74.2485972,43.1272707 73.2028112,44.1730567 71.9129321,44.1730567 C70.623053,44.1730567 69.5780298,43.1272707 69.5780298,41.8381544 C69.5780298,40.5482753 70.623053,39.5024893 71.9129321,39.5024893 C73.2028112,39.5024893 74.2485972,40.5482753 74.2485972,41.8381544" id="Fill-19" fill="#EC7AA1" opacity="0.2"></path>
                    <path d="M93.5373619,41.8381544 C93.5373619,43.1272707 92.4923386,44.1730567 91.2016967,44.1730567 C89.9125805,44.1730567 88.8667944,43.1272707 88.8667944,41.8381544 C88.8667944,40.5482753 89.9125805,39.5024893 91.2016967,39.5024893 C92.4923386,39.5024893 93.5373619,40.5482753 93.5373619,41.8381544" id="Fill-21" fill="#EC7AA1" opacity="0.2"></path>
                    <path d="M100.671438,32.8980949 C99.7728707,44.2285879 95.7026195,59.651453 81.7008335,59.651453 C68.666266,59.651453 64.2878474,45.5314344 63.0330567,34.3687553" id="Stroke-23" stroke="#4A4A4A" stroke-width="2" stroke-linecap="round" stroke-linejoin="round"></path>
                    <path d="M75.2833228,58.5208447 L73.5700949,69.8292167" id="Stroke-25" stroke="#4A4A4A" stroke-width="2" stroke-linecap="round" stroke-linejoin="round"></path>
                    <path d="M88.3319256,58.34464 L89.9749767,69.7781098" id="Stroke-27" stroke="#4A4A4A" stroke-width="2" stroke-linecap="round" stroke-linejoin="round"></path>
                    <path d="M16.8813972,93.9645247 L44.3006716,108.923613" id="Stroke-29" stroke="#4A4A4A" stroke-width="2" stroke-linecap="round" stroke-linejoin="round"></path>
                    <path d="M16.8813972,93.9645247 C16.8813972,93.9645247 15.5854158,91.9461805 13.489267,90.3572874 C13.489267,90.3572874 11.6913693,88.7943293 10.1551088,87.4800409 C9.14059721,86.6112223 8.13752744,85.6737526 7.44720186,86.6173247 C6.97122047,87.2687479 8.27711814,88.5456595 9.00253209,89.8874084 C9.82787163,91.2787386 10.1276484,91.6586084 10.1276484,91.6586084" id="Stroke-31" stroke="#4A4A4A" stroke-width="2" stroke-linecap="round" stroke-linejoin="round"></path>
                    <path d="M10.127267,91.6586847 C9.79469023,91.5541823 8.92358326,91.289494 7.86864372,90.72808 C7.86864372,90.72808 5.53526698,89.4618474 3.82432744,87.2085637 C2.45130419,85.3328614 1.42687628,85.2291219 0.948606512,85.3580335 C0.471099535,85.4869451 0.000457674419,86.1307405 0.000457674419,86.9690474 C0.000457674419,89.6044893 5.43915535,93.5648986 5.43915535,93.5648986 C7.40562977,94.9493637 9.49491349,95.9188707 11.1280484,96.2560242 C13.3264112,96.7098847 15.7574251,96.6091963 15.7574251,96.6091963" id="Stroke-33" stroke="#4A4A4A" stroke-width="2" stroke-linecap="round" stroke-linejoin="round"></path>
                    <path d="M146.554367,93.9645247 C146.554367,93.9645247 147.850348,91.9461805 149.946497,90.3572874 C149.946497,90.3572874 151.744394,88.7943293 153.280655,87.4800409 C154.295929,86.6112223 155.298236,85.6737526 155.988562,86.6173247 C156.465306,87.2687479 155.158646,88.5456595 154.433232,89.8874084 C153.608655,91.2787386 153.308115,91.6586084 153.308115,91.6586084" id="Stroke-35" stroke="#4A4A4A" stroke-width="2" stroke-linecap="round" stroke-linejoin="round"></path>
                    <path d="M153.30842,91.6586847 C153.640997,91.5541823 154.512104,91.289494 155.567044,90.72808 C155.567044,90.72808 157.90042,89.4618474 159.61136,87.2085637 C160.984383,85.3328614 162.008811,85.2291219 162.487081,85.3580335 C162.965351,85.4869451 163.43523,86.1307405 163.43523,86.9690474 C163.43523,89.6044893 157.996532,93.5648986 157.996532,93.5648986 C156.030058,94.9493637 153.941537,95.9188707 152.307639,96.2560242 C150.109276,96.7098847 147.678262,96.6091963 147.678262,96.6091963" id="Stroke-37" stroke="#4A4A4A" stroke-width="2" stroke-linecap="round" stroke-linejoin="round"></path>
                    <path d="M48.5446865,96.4857005 C47.4775423,99.7153563 46.6216912,102.47437 46.0442586,104.132677 C44.5613935,108.388287 44.4568912,109.011487 44.4568912,109.011487 L47.86504,111.128993" id="Stroke-39" stroke="#4A4A4A" stroke-width="2" stroke-linecap="round" stroke-linejoin="round"></path>
                    <path d="M59.1231442,41.5930698 C58.9736372,41.0865767 59.7226977,35.1764744 64.521414,33.2313581 C69.3193674,31.2862419 71.719107,27.400586 73.5185302,25.7102419 C75.3171907,24.0206605 79.3660837,22.6369581 83.5652465,23.4134791 C87.7636465,24.19 87.6141395,21.7177953 88.5134698,19.6590233 C89.4135628,17.6002512 94.6539349,16.7947442 96.3107163,19.9786326 C98.9896372,25.1251814 99.8493023,30.9254419 101.049172,33.7111535 C102.248279,36.4968651 103.255926,45.6007721 103.255926,45.6007721" id="Stroke-41" stroke="#4A4A4A" stroke-width="2" stroke-linecap="round" stroke-linejoin="round"></path>
                    <path d="M51.6732726,85.1816763 C51.6732726,85.1816763 51.6816633,85.63096 50.7960633,83.3181786 C49.7190028,80.5088205 50.2849935,75.8657135 50.7960633,74.1456205 C51.307133,72.4255274 52.8243237,69.7809321 52.8510214,67.8609879 C52.8838214,65.5634623 50.8593749,64.7983833 50.0714121,62.929546 C48.3612353,58.8722623 52.5367516,55.3664763 51.9112633,51.1696019 C51.3147609,47.1687647 47.2223888,44.3250809 46.9760074,40.3593321 C46.7143702,36.1563553 51.3521377,31.394253 50.4428912,26.9578623 C50.4428912,26.9578623 50.1469284,24.571853 50.5473935,23.0096577 C54.8785191,6.1069786 86.0171609,-11.1999795 105.234147,10.9697693 C109.540863,15.9385879 112.711021,21.9379367 112.263263,28.3049507 C112.093924,30.7008763 110.260175,33.3546251 110.632417,35.5842623 C111.103821,38.4058251 114.396026,40.4089135 113.56077,43.497453 C113.06038,45.3464577 111.470724,46.890346 110.516473,48.5646716 C109.349403,50.6097135 109.233459,52.4480391 109.707914,54.6235181 C110.093887,56.3939553 110.858203,59.5580112 111.0489,60.3848763 C111.239598,61.2117414 112.599654,66.3674437 111.865087,71.5696763 C111.318166,75.4393135 109.790296,80.4836484 110.219747,82.4394437" id="Stroke-43" stroke="#4A4A4A" stroke-width="2" stroke-linecap="round" stroke-linejoin="round"></path>
                    <path d="M146.554367,94.0453805 L119.14806,109.364506" id="Stroke-45" stroke="#4A4A4A" stroke-width="2" stroke-linecap="round" stroke-linejoin="round"></path>
                    <path d="M147.689552,96.6242233 C147.689552,96.6242233 131.976826,111.769433 121.861459,118.121953 C114.396789,122.809302 112.07638,115.514735 111.575226,114.213414 C111.134333,113.06694 104.951152,94.402214 104.951152,94.402214 C99.6268726,116.578828 100.922091,124.092316 101.092193,127.335702 C101.166184,128.744577 102.143319,136.036093 102.143319,136.036093 C102.57811,138.576186 102.989254,140.457228 103.334798,143.180391 C103.710091,146.149935 101.524696,148.558828 98.739747,148.497805 L64.8649749,148.497805 C62.080026,148.558828 59.8984447,145.941693 60.2706865,143.180391 C60.2706865,143.180391 60.8839702,139.58307 61.4621656,135.683684 C61.4621656,135.683684 62.4393005,128.392167 62.5132912,126.98253 C62.6833935,123.739144 63.9778493,116.225656 58.654333,94.0498047 C58.654333,94.0498047 52.4711516,112.71453 52.0302586,113.861005 C51.5298679,115.161563 49.2086958,122.456893 41.7432633,117.769544 C31.6278958,111.417023 15.8228726,96.6089674 15.8228726,96.6089674" id="Stroke-47" stroke="#4A4A4A" stroke-width="2" stroke-linecap="round" stroke-linejoin="round"></path>
                    <path d="M115.060188,96.8384149 C116.128095,100.068071 116.983183,102.827085 117.561379,104.485392 C119.044244,108.741001 119.147983,109.364201 119.147983,109.364201 L115.739834,111.481708" id="Stroke-49" stroke="#4A4A4A" stroke-width="2" stroke-linecap="round" stroke-linejoin="round"></path>
                    <path d="M56.3021916,100.716061 L46.9160521,95.5664614 L51.8978381,85.5594102 C51.8978381,85.5594102 55.400573,78.6080986 57.7408149,75.3319126 C61.0353079,70.7193172 66.5876614,68.7055498 70.3070288,67.8435963 C71.0942288,67.6612893 71.9104149,67.9633544 72.3848707,68.6163033 L75.2644056,72.5866288 C78.3453172,76.7377358 84.6169823,76.9253823 87.8695219,72.9077637 L91.254787,68.6361358 C91.7437358,68.0205637 92.5439033,67.7512986 93.3074567,67.9374195 C97.0184335,68.8398009 102.559345,71.0572335 105.86528,75.6850847 C108.204759,78.9605079 111.707494,85.9118195 111.707494,85.9118195 L116.688517,95.9188707 L107.192536,101.105847" id="Stroke-51" stroke="#4A4A4A" stroke-width="2" stroke-linecap="round" stroke-linejoin="round"></path>
                    <path d="M102.108383,147.451866 C102.108383,147.451866 103.694988,155.386415 106.515788,164.379717 C109.338113,173.372257 112.877462,182.303773 112.687527,188.360331 C112.512086,194.003457 108.808737,197.353633 103.166374,194.709038 C86.8678251,187.068927 82.3589693,193.121671 68.7889228,197.621373 C58.1502809,201.14928 42.1553228,190.829485 46.6313786,178.999364 C51.1158251,167.14941 60.7452949,158.433001 61.8460019,147.569336" id="Stroke-53" stroke="#4A4A4A" stroke-width="2" stroke-linecap="round" stroke-linejoin="round"></path>
                </g>
            </g>
        </g>
    </g>
</svg>